<svg xmlns="http://www.w3.org/2000/svg" viewBox="0 0 500 500"><g id="freepik--Floor--inject-107"><path d="M441.59,395.59h.48s0,0,0,0h-.48l-2.95,0-11.32,0-41.66.09-137.42.07-137.45-.07-41.66-.09-11.32,0-3,0-1,0,1,0,3,0,11.32-.05,41.66-.08,137.45-.08,137.42.08,41.66.08,11.32.05,2.95,0h.48c0,.08,0,0,0,0h-.22Z" style="fill:#263238"></path></g><g id="freepik--Plant--inject-107"><path d="M425.82,362.47c-1.54,2.19-4.52,1.46-5.91.13s-2-3.28-2.5-5.13c-1.21-4.23-2.44-8.66-1.53-13a7.27,7.27,0,0,1,1.65-3.52,3.8,3.8,0,0,1,3.57-1.19c1.5.4,2.44,1.87,3.11,3.28a30.89,30.89,0,0,1,3.06,13.26,10.84,10.84,0,0,1-1.45,6.14" style="fill:#000000"></path><g style="opacity:0.2"><path d="M425.82,362.47c-1.54,2.19-4.52,1.46-5.91.13s-2-3.28-2.5-5.13c-1.21-4.23-2.44-8.66-1.53-13a7.27,7.27,0,0,1,1.65-3.52,3.8,3.8,0,0,1,3.57-1.19c1.5.4,2.44,1.87,3.11,3.28a30.89,30.89,0,0,1,3.06,13.26,10.84,10.84,0,0,1-1.45,6.14"></path></g><path d="M420.06,373.57a13.33,13.33,0,0,0-8.25-1,6.84,6.84,0,0,0-4.08,1.82c-1,1.12-1.21,3.1,0,4.07a4,4,0,0,0,2.57.65c2.18,0,4.61-.41,6.35.9,1,.75,1.65,2,2.84,2.37a2.82,2.82,0,0,0,3.1-1.38,4.86,4.86,0,0,0,.35-3.54A5.45,5.45,0,0,0,420.06,373.57Z" style="fill:#000000"></path><path d="M430,365.61a8,8,0,0,1-1.24-7.34,14.19,14.19,0,0,1,4.35-6.31,23.49,23.49,0,0,1,7.79-4.59,8.11,8.11,0,0,1,3.5-.59,3.68,3.68,0,0,1,2.94,1.77c.82,1.57,0,3.46-.82,5a60.73,60.73,0,0,1-5.11,7.79c-1.54,2-3.29,3.92-5.63,4.82s-4.76.78-6-.84" style="fill:#000000"></path><path d="M425.92,395.54a5.15,5.15,0,0,1-.14-1c-.07-.73-.16-1.64-.26-2.72s-.3-2.51-.61-4a32.11,32.11,0,0,0-1.45-4.71,17.6,17.6,0,0,0-2.41-4.26,8.9,8.9,0,0,0-3-2.52,8.24,8.24,0,0,0-2.56-.8,6.69,6.69,0,0,1-1-.14,4.17,4.17,0,0,1,1,0,7.81,7.81,0,0,1,2.67.69,9,9,0,0,1,3.21,2.55,17.07,17.07,0,0,1,2.49,4.35,29.15,29.15,0,0,1,1.44,4.78,34.15,34.15,0,0,1,.53,4c.08,1.16.12,2.09.13,2.74A4.11,4.11,0,0,1,425.92,395.54Z" style="fill:#263238"></path><path d="M425.73,393.45a2.35,2.35,0,0,1,0-.46v-1.32c0-1.15,0-2.81-.06-4.86-.1-4.1-.45-9.76-1.14-16S422.92,359,422.09,355c-.2-1-.4-1.91-.58-2.71s-.33-1.48-.48-2-.22-.95-.31-1.29a2.92,2.92,0,0,1-.08-.45s.07.14.16.43l.39,1.27c.17.55.34,1.23.54,2s.43,1.69.64,2.7a146.39,146.39,0,0,1,2.55,15.85c.69,6.24,1,11.91,1,16,0,2.06,0,3.72-.07,4.87,0,.54-.06,1-.08,1.32A1.43,1.43,0,0,1,425.73,393.45Z" style="fill:#263238"></path><path d="M425.71,382.5a7.67,7.67,0,0,1,0-1.38c0-.89.17-2.17.42-3.74a46.29,46.29,0,0,1,1.22-5.45,48.65,48.65,0,0,1,2.27-6.45,34.53,34.53,0,0,1,6.7-10.43,18.28,18.28,0,0,1,1.57-1.46c.25-.2.46-.41.68-.57l.61-.42a7.48,7.48,0,0,1,1.16-.74,39.92,39.92,0,0,0-3.81,3.4A36,36,0,0,0,430,365.64a51.25,51.25,0,0,0-2.29,6.39,55,55,0,0,0-1.3,5.4c-.28,1.55-.45,2.82-.55,3.7A11.51,11.51,0,0,1,425.71,382.5Z" style="fill:#263238"></path></g><g id="freepik--Characters--inject-107"><path d="M464.93,226.55l-20.19,5-1.11-5.22c-1-4.45,0-6.86.46-7.74a4.77,4.77,0,0,0,.26-1.33c-.13-1.58-3.79-9-5.13-11.71-1.6-3.25,0-5.41,1-4.15,1.83,2.33,7.42,12.72,8.74,13.53s-.33-4.77-.33-4.77c-3.92-11.82-5-13.45-2.93-14.29,2.38-1,8.29,16.63,8.29,16.63s-.81-2.46,1-3.32,3.18,1.49,3.18,1.49c-.47-1.25,1.33-1.78,1.33-1.78,4.69-.17,5.36,17.68,5.36,17.68l-20.19,5,2.2,70-13.26-14.17-23.85,24.24,29.73,25a22.11,22.11,0,0,0,18.87,4.7h0a22.13,22.13,0,0,0,17.33-24.25Z" style="fill:#eb996e"></path><path d="M448.94,229.55c-.1-.08.81-1.23,1.94-3.28a28,28,0,0,0,1.72-3.72c.27-.73.53-1.49.75-2.3a4.92,4.92,0,0,0,.3-2.37,1,1,0,0,0-.74-.73,1.8,1.8,0,0,0-1.13.39,12.56,12.56,0,0,0-4.39,5.39l-.17.39L447,223a8.07,8.07,0,0,0-2-1.78,3.58,3.58,0,0,1,2.38,1.49l-.41.06a12.06,12.06,0,0,1,4.42-5.84,2.48,2.48,0,0,1,1.65-.54,1.74,1.74,0,0,1,1.39,1.28,5.38,5.38,0,0,1-.32,2.8c-.24.82-.51,1.61-.81,2.35a23.94,23.94,0,0,1-1.91,3.74A11.45,11.45,0,0,1,448.94,229.55Z" style="fill:#d1734a"></path><path d="M454.48,213.61a18.55,18.55,0,0,1,.65,3.76c.15,1.25.31,2.62.49,4.09a16.28,16.28,0,0,0,.34,2.34c.18.7.92,1.21,1.39.83a3.25,3.25,0,0,0,.68-2.13c.09-.83.13-1.64.16-2.41.06-1.54.06-2.94.07-4.11a16.45,16.45,0,0,1,.23-3.81,20.45,20.45,0,0,1,.32,3.8c.06,1.17.12,2.57.1,4.14,0,.78,0,1.6-.12,2.46a3.75,3.75,0,0,1-1,2.68,1.48,1.48,0,0,1-1.68,0,2.25,2.25,0,0,1-.89-1.24,13.78,13.78,0,0,1-.33-2.48c-.12-1.48-.23-2.86-.33-4.13A18.33,18.33,0,0,1,454.48,213.61Z" style="fill:#d1734a"></path><path d="M458.82,218.16c.12,0,0,.89.29,2.19a4.14,4.14,0,0,0,1,2c.29.2.46.18.66-.15a9,9,0,0,0,.44-1.38c1.09-4.05.71-7.52.94-7.54s1,3.5-.19,7.74a7.83,7.83,0,0,1-.54,1.56,1.1,1.1,0,0,1-1.76.33,2.88,2.88,0,0,1-.78-1.24,6.49,6.49,0,0,1-.31-1.16A3.29,3.29,0,0,1,458.82,218.16Z" style="fill:#d1734a"></path><path d="M309.6,356.17,302,310l-14.92,23.81-6-3.47-30.53-17.54L244,309l22.52-34c28.34-43.74,58.41-38.43,58.41-38.43l40.7-1.89s29-1,47,21.43c14.67,18.22,30.55,37.45,30.55,37.45l-30.64,31.14-14.72-18.52-5.42,46.45" style="fill:#455a64"></path><path d="M459.81,230c-.19.14-1.45-1.68-3.79-2.88s-4.52-1.24-4.52-1.47,2.35-.56,4.88.79S460,229.93,459.81,230Z" style="fill:#d1734a"></path><path d="M452,314.27c-.18.1-1.87-2.63-3.3-6.29s-2.06-6.81-1.86-6.86,1.16,3,2.58,6.57S452.24,314.16,452,314.27Z" style="fill:#d1734a"></path><path d="M307.91,301.87c.18.12-4.46,7.34-10.37,16.12s-10.83,15.82-11,15.7,4.46-7.34,10.37-16.13S307.74,301.75,307.91,301.87Z" style="fill:#263238"></path><path d="M398.34,282.09a5.29,5.29,0,0,1,.21,1.53c.08,1,.16,2.43.23,4.21.14,3.55.2,8.47,0,13.9s-.54,10.33-.9,13.87c-.18,1.77-.35,3.2-.5,4.18a5.85,5.85,0,0,1-.3,1.52,5.61,5.61,0,0,1,0-1.55c.07-1.16.15-2.56.25-4.19.23-3.55.51-8.44.68-13.86s.2-10.31.2-13.86c0-1.64,0-3,0-4.21A6.28,6.28,0,0,1,398.34,282.09Z" style="fill:#263238"></path><path d="M311.56,356.29s28.38,11.34,46.17,10.38,34.62-14.07,34.62-14.07" style="fill:#455a64"></path><path d="M296.9,395.71s9.9-32.83,12.7-39.54c0,0,57.82,3.88,86.2-4.49,3,6.32,8.84,32.18,14,44C409.83,395.71,373.28,396.28,296.9,395.71Z" style="fill:#263238"></path><path d="M361.15,366.73s-.23.26-.56.75a4.16,4.16,0,0,0-.67,2.33,3.5,3.5,0,0,0,1.62,3A3.66,3.66,0,0,0,367.2,369a3.49,3.49,0,0,0-2.17-2.64,4.07,4.07,0,0,0-2.41-.27c-.58.11-.88.28-.9.23a2,2,0,0,1,.85-.43,4.21,4.21,0,0,1,4.14,1.13,3.75,3.75,0,0,1,1,1.89,4.12,4.12,0,0,1-6.39,4.29,3.84,3.84,0,0,1-1.39-1.62,4.25,4.25,0,0,1-.34-1.8,4.08,4.08,0,0,1,.88-2.45A2,2,0,0,1,361.15,366.73Z" style="fill:#455a64"></path><path d="M378.74,368.26c-.16,0,.2-3-.26-6.65s-1.49-6.45-1.33-6.51a6.24,6.24,0,0,1,.8,1.81,23.41,23.41,0,0,1,1.14,9.4A5.84,5.84,0,0,1,378.74,368.26Z" style="fill:#455a64"></path><path d="M384.56,367.67c-.16,0,.15-3-.36-6.6s-1.58-6.4-1.43-6.45a6.05,6.05,0,0,1,.83,1.78,22.42,22.42,0,0,1,1.12,4.6,22.65,22.65,0,0,1,.16,4.74A5.63,5.63,0,0,1,384.56,367.67Z" style="fill:#455a64"></path><path d="M352.88,395.31c-.14,0-.26-8.51-.26-19s.12-19,.26-19,.26,8.5.26,19S353,395.31,352.88,395.31Z" style="fill:#455a64"></path><path d="M324.09,368.52a4.13,4.13,0,0,1-.75-1.69,10.07,10.07,0,0,1,1.66-8.54,4.16,4.16,0,0,1,1.32-1.29,15.46,15.46,0,0,1-1,1.5,11.5,11.5,0,0,0-1.6,8.25A15.26,15.26,0,0,1,324.09,368.52Z" style="fill:#455a64"></path><path d="M331.51,369.8a5,5,0,0,1-.91-1.67,13.23,13.23,0,0,1-.14-9.06,4.83,4.83,0,0,1,.86-1.7,17.16,17.16,0,0,0,.19,12.43Z" style="fill:#455a64"></path><path d="M308.71,366.67a13.88,13.88,0,0,1,1-3.62,13.39,13.39,0,0,1,1.44-3.46,14,14,0,0,1-1,3.62A13.39,13.39,0,0,1,308.71,366.67Z" style="fill:#455a64"></path><path d="M305.3,378.64a14.75,14.75,0,0,1,.84-3.87,15.26,15.26,0,0,1,1.34-3.73,15.28,15.28,0,0,1-.84,3.88A16.1,16.1,0,0,1,305.3,378.64Z" style="fill:#455a64"></path><path d="M301.76,388.53a12.67,12.67,0,0,1,1.06-3.42,12.89,12.89,0,0,1,1.54-3.24,24.71,24.71,0,0,1-2.6,6.66Z" style="fill:#455a64"></path><path d="M355.52,367.51a19.82,19.82,0,0,1-.17-4.49,19.43,19.43,0,0,1,.36-4.47,19.51,19.51,0,0,1,.16,4.49A19.79,19.79,0,0,1,355.52,367.51Z" style="fill:#455a64"></path><path d="M355.61,379.37a22.53,22.53,0,0,1,.07-6.76,10.8,10.8,0,0,1,.23,3.38A11.29,11.29,0,0,1,355.61,379.37Z" style="fill:#455a64"></path><path d="M355.5,391.24a25.7,25.7,0,0,1,.2-7.29,12.93,12.93,0,0,1,.16,3.65A13.46,13.46,0,0,1,355.5,391.24Z" style="fill:#455a64"></path><path d="M361.21,327.83c0,.14-12.48-.26-27.85-.9s-27.83-1.27-27.82-1.41,12.47.25,27.84.89S361.21,327.68,361.21,327.83Z" style="fill:#fafafa"></path><path d="M394.43,333c0,.14-14.07,1.17-31.44,2.29s-31.47,1.91-31.48,1.76,14.07-1.16,31.45-2.28S394.42,332.84,394.43,333Z" style="fill:#fafafa"></path><path d="M378.94,345.11a3.63,3.63,0,0,1-.69.17l-2,.36c-.86.18-1.94.3-3.18.47s-2.66.32-4.24.47a218.66,218.66,0,0,1-49.22-1.48c-1.57-.24-3-.46-4.2-.72s-2.3-.43-3.15-.66l-2-.48a3.48,3.48,0,0,1-.68-.21,3.64,3.64,0,0,1,.71.1l2,.4c.86.19,1.92.35,3.16.56s2.64.43,4.2.65a233.06,233.06,0,0,0,24.54,2,230.42,230.42,0,0,0,24.6-.5c1.57-.12,3-.23,4.23-.39s2.32-.23,3.19-.38l2-.27A4.08,4.08,0,0,1,378.94,345.11Z" style="fill:#fafafa"></path><path d="M393.34,350.82c0,.14-4.72.46-10.57.7a103.13,103.13,0,0,1-10.59.18c0-.14,4.72-.45,10.57-.7S393.34,350.67,393.34,350.82Z" style="fill:#fafafa"></path><path d="M393.91,319.24a3,3,0,0,1-.56,0l-1.62,0c-1.4,0-3.44,0-6-.07-5-.12-12-.46-19.61-1s-14.56-1.24-19.55-1.86c-2.5-.3-4.51-.59-5.9-.81l-1.6-.27a1.89,1.89,0,0,1-.55-.13,4,4,0,0,1,.57,0l1.61.17,5.91.64c5,.53,11.9,1.15,19.55,1.72s14.56.95,19.58,1.16l5.94.23,1.62.07A2.05,2.05,0,0,1,393.91,319.24Z" style="fill:#fafafa"></path><path d="M396.88,308.36a3.63,3.63,0,0,1-.76,0l-2.19-.18c-1.89-.13-4.64-.31-8-.48-6.79-.33-16.18-.64-26.56-.89s-19.78-.37-26.59-.43l-8.05,0H322.5a4.23,4.23,0,0,1-.77,0,5,5,0,0,1,.76-.06l2.2-.1c1.9-.05,4.65-.1,8.06-.12,6.8,0,16.21,0,26.59.27s19.78.62,26.57,1c3.4.22,6.15.46,8,.65l2.18.28A4.31,4.31,0,0,1,396.88,308.36Z" style="fill:#fafafa"></path><path d="M319.64,311.66a67.46,67.46,0,0,1-8.54.38,67.84,67.84,0,0,1-8.54-.14,72,72,0,0,1,8.53-.38A73,73,0,0,1,319.64,311.66Z" style="fill:#fafafa"></path><path d="M391.26,293.43a.77.77,0,0,1-.25,0l-.72-.12a24.73,24.73,0,0,0-2.77-.3,42.36,42.36,0,0,0-10.18,1.08c-2.13.42-4.46.94-7,1.35a73.45,73.45,0,0,1-8.14.82c-5.76.3-12.08,0-18.71.1l-34,0-10.3-.07-2.8,0-.72,0a.79.79,0,0,1-.25,0l.25,0,.72,0,2.8-.05,10.3-.09,34-.12c6.64-.08,13,.22,18.69-.06a78.13,78.13,0,0,0,8.09-.76c2.52-.39,4.85-.89,7-1.29a39.93,39.93,0,0,1,10.26-.92A15.89,15.89,0,0,1,391.26,293.43Z" style="fill:#fafafa"></path><path d="M430.62,280.24a3.9,3.9,0,0,1-.73.1l-2.1.19c-1.83.16-4.47.35-7.74.55-6.54.41-15.59.84-25.59,1s-19.06.14-25.61,0c-3.28-.08-5.93-.16-7.76-.24l-2.11-.11a3.81,3.81,0,0,1-.73-.07,3.48,3.48,0,0,1,.74,0h2.11l7.75.08c6.55.05,15.6.06,25.6-.14s19-.57,25.58-.89l7.74-.38,2.11-.09A3.45,3.45,0,0,1,430.62,280.24Z" style="fill:#fafafa"></path><path d="M424.35,270.11c0,.14-8,.29-17.82.33s-17.83-.05-17.83-.19,8-.3,17.82-.33S424.35,270,424.35,270.11Z" style="fill:#fafafa"></path><path d="M403.38,261.45a1.53,1.53,0,0,1-.49.08l-1.39.14c-1.22.11-3,.24-5.15.38-4.34.28-10.36.55-17,.67s-12.67.06-17-.06c-2.18-.06-3.94-.12-5.16-.19l-1.4-.09a2,2,0,0,1-.48-.06,1.72,1.72,0,0,1,.49,0h1.4l5.15,0c4.36,0,10.37,0,17-.09s12.65-.34,17-.52l5.15-.21,1.41,0A1.86,1.86,0,0,1,403.38,261.45Z" style="fill:#fafafa"></path><path d="M403.92,248.92c0,.15-5.74.17-12.81.05s-12.81-.33-12.81-.47,5.74-.17,12.82-.05S403.93,248.78,403.92,248.92Z" style="fill:#fafafa"></path><path d="M426.58,297.86c0,.14-6.22.62-13.91,1.06s-13.94.68-13.95.53,6.22-.61,13.92-1.05S426.58,297.71,426.58,297.86Z" style="fill:#fafafa"></path><path d="M346.1,287.94a1.61,1.61,0,0,1-.52,0l-1.51,0-5.54-.2c-4.67-.16-11.13-.34-18.26-.37s-13.6.1-18.27.23l-5.54.16-1.5,0a3.06,3.06,0,0,1-.53,0,1.71,1.71,0,0,1,.52-.08l1.5-.13c1.31-.1,3.2-.21,5.54-.32,4.67-.23,11.14-.41,18.28-.39s13.61.26,18.28.53c2.34.13,4.23.25,5.53.36l1.5.14A2,2,0,0,1,346.1,287.94Z" style="fill:#fafafa"></path><path d="M353.33,274.19a19.71,19.71,0,0,1-3.15,0c-1.94,0-4.63-.1-7.59-.11s-5.65,0-7.59.07a22,22,0,0,1-3.15,0,17.24,17.24,0,0,1,3.13-.34c1.95-.12,4.64-.22,7.61-.22s5.66.12,7.61.26A19,19,0,0,1,353.33,274.19Z" style="fill:#fafafa"></path><path d="M342.62,266.09a1.82,1.82,0,0,1-.5.07l-1.42.09c-1.23.08-3,.16-5.22.22-4.42.13-10.52.19-17.25,0s-12.83-.59-17.23-1c-2.2-.19-4-.37-5.21-.51l-1.41-.18a1.87,1.87,0,0,1-.49-.1,1.82,1.82,0,0,1,.5,0l1.42.08,5.21.35c4.41.29,10.49.63,17.22.82s12.82.19,17.23.15l5.23-.05h1.42A1.91,1.91,0,0,1,342.62,266.09Z" style="fill:#fafafa"></path><path d="M292.66,274.86a100.77,100.77,0,0,1,10.31-.13,99.52,99.52,0,0,1,10.3.39c0,.14-4.62.2-10.31.13A103,103,0,0,1,292.66,274.86Z" style="fill:#fafafa"></path><path d="M327.5,250.56c0,.14-8,.35-17.85.46s-17.86.09-17.86-.06,8-.35,17.85-.46S327.5,250.41,327.5,250.56Z" style="fill:#fafafa"></path><path d="M307.92,152c3.33,5.18,7.61,16.3,4,21.29-1.66,2.29-4,4.24-4.66,7-1.05,4.48,2.86,9.08,1.62,13.5-.84,3-3.76,4.87-5.5,7.46a10.61,10.61,0,0,0-.12,11.35c1.7,2.67,4.64,4.59,5.59,7.61.71,2.24.18,4.69.69,7,.8,3.58,4.08,6.2,7.59,7.27s7.27.88,10.94.68c-.11-1.34-.21-2.68-.32-4a7.76,7.76,0,0,0,5.83,4.25,22.88,22.88,0,0,0,7.47-.22c2.26-6.5,4.55-13.38,3.23-20.13-1.19-6.08-5.13-11.17-8.29-16.5a69.52,69.52,0,0,1-7.72-19c-1.17-4.8-1.83-9.76-3.71-14.33s-5.23-8.86-9.94-10.34" style="fill:#263238"></path><path d="M332.33,243.36c-.23-10.37-.66-21.29-.66-21.29s-13.41-2-16.5-19.36c-3-16.59-.94-55.05-.94-55.05h0a50.14,50.14,0,0,1,56,11.73h0l.45,84.31c.05,9.79-8.33,17.63-18.81,17.6h0C341.29,261.28,332.54,253.25,332.33,243.36Z" style="fill:#eb996e"></path><path d="M319.74,177.57a2.23,2.23,0,0,0,2.2,2.21,2.13,2.13,0,0,0,2.27-2.06,2.23,2.23,0,0,0-2.2-2.21A2.14,2.14,0,0,0,319.74,177.57Z" style="fill:#263238"></path><path d="M316.07,175.13c.28.29,1.95-1,4.36-1s4.2,1.14,4.45.84c.13-.14-.17-.66-.95-1.2a6.07,6.07,0,0,0-3.56-1,5.94,5.94,0,0,0-3.47,1.19C316.17,174.47,315.93,175,316.07,175.13Z" style="fill:#263238"></path><path d="M344.39,177.53a2.24,2.24,0,0,0,2.2,2.22,2.15,2.15,0,0,0,2.27-2.06,2.24,2.24,0,0,0-2.2-2.22A2.15,2.15,0,0,0,344.39,177.53Z" style="fill:#263238"></path><path d="M341.2,175.54c.29.28,2-1,4.36-1s4.2,1.13,4.45.83c.13-.13-.16-.65-.94-1.2a6.21,6.21,0,0,0-3.57-1,6,6,0,0,0-3.47,1.19C341.31,174.88,341.06,175.41,341.2,175.54Z" style="fill:#263238"></path><path d="M332.8,193.55c0-.14-1.49-.37-3.92-.63-.62,0-1.2-.16-1.31-.58a3.1,3.1,0,0,1,.37-1.83q.82-2.25,1.73-4.72c2.4-6.71,4.13-12.22,3.86-12.32s-2.44,5.27-4.84,12q-.87,2.49-1.65,4.75a3.54,3.54,0,0,0-.28,2.41,1.54,1.54,0,0,0,1,.88,3.8,3.8,0,0,0,1,.13C331.28,193.7,332.79,193.69,332.8,193.55Z" style="fill:#263238"></path><path d="M331.67,222.07a44.44,44.44,0,0,0,23.24-6.67s-5.44,12.08-22.93,10.78Z" style="fill:#d1734a"></path><path d="M332.62,144.47c-1.43,2.58-.07,6,2.22,7.83s5.27,2.57,8.11,3.37,5.78,1.8,7.72,4c3.59,4.12,1.94,9.27,5.41,14.46,1.84,2.75,4.09,4.68,8.1,4.59,3.32-.08,3.7.87,4.91,4.82,1.15,3.77-.65,6.38-2.89,9.62s-3.77,6.6-3.18,10.49c.42,2.82,4.83,3.45,5,6.29.31,4.48-2.85,11.07-.71,15s10.08,3.43,12.58,7.16c.89,1.32,1.26,3.21,2.74,3.8a4.4,4.4,0,0,0,2.81-.17l14-4.05c-.19-1.42-.37-2.84-.56-4.27a9,9,0,0,0,14.52-.47,40.15,40.15,0,0,1-7-6.72,13.49,13.49,0,0,1-3-9c.32-3.91,2.91-7.62,2.16-11.47-1.06-5.51-8-7.7-10.71-12.64-2.49-4.62-.72-10.68-3.28-15.25-3-5.32-10.5-6.44-14.05-11.4-2.4-3.35-2.52-7.81-4.11-11.62-1.91-4.57-5.91-8-10.4-10.13a44.39,44.39,0,0,0-14.37-3.44c-3.68-.37-7.53-.53-11,.88s-6.3,4.8-6,8.49" style="fill:#263238"></path><path d="M359.55,178.15a10.43,10.43,0,0,1,5.62-.22,7.25,7.25,0,0,1,4.47,3.3,7.54,7.54,0,0,1,.62,5.54,12.88,12.88,0,0,1-2.68,5,8.78,8.78,0,0,1-3.14,2.58,4.17,4.17,0,0,1-3.93-.2" style="fill:#eb996e"></path><path d="M361.73,189.29c-.2.1.72,1.14,2.37.5a3.63,3.63,0,0,0,1.91-2,8.27,8.27,0,0,0,.6-3.18,4.84,4.84,0,0,0-1.12-3.18,3.22,3.22,0,0,0-2.58-1.19c-1.75.14-2.17,1.4-2,1.42s.77-.57,1.94-.41,2.35,1.49,2.3,3.39-.56,3.75-1.53,4.29S361.83,189.13,361.73,189.29Z" style="fill:#d1734a"></path><path d="M332.46,145.39a8.63,8.63,0,0,1-4.77,9.79c-2.06.89-4.47.95-6.29,2.25s-2.66,3.54-3.19,5.7-.85,4.44-2,6.34-3.59,8.36-5.72,7.72c-.8-3.8-1.45-12.59-2.25-16.39-.89-4.2-1.76-8.66-.29-12.7,2.1-5.76,8.42-8.94,14.48-9.85,2.81-.43,5.86-.44,8.27,1.06s3.75,5,2.15,7.31" style="fill:#263238"></path><path d="M341,169.54c.13.19.68,0,1.54-.07a14.62,14.62,0,0,1,3.38,0,14.43,14.43,0,0,1,3.3.76c.82.29,1.31.57,1.48.42s-.11-.76-.94-1.38a7.8,7.8,0,0,0-3.66-1.35,7.71,7.71,0,0,0-3.86.48C341.29,168.83,340.88,169.39,341,169.54Z" style="fill:#263238"></path><path d="M319.06,169.89c0,.43,1.54.73,3.42.69s3.4-.44,3.39-.87-1.54-.73-3.43-.69S319.05,169.46,319.06,169.89Z" style="fill:#263238"></path><path d="M339.83,198.42a3.18,3.18,0,1,0-4.22,4.71,3.21,3.21,0,1,0,3.22-5.52" style="fill:#000000"></path><path d="M339.92,195.08c-.4,0-.35,2.6-2.55,4.5s-5,1.66-5,2c0,.17.63.5,1.8.51a6.47,6.47,0,0,0,4.18-1.55,5.68,5.68,0,0,0,2-3.76C340.4,195.71,340.1,195.06,339.92,195.08Z" style="fill:#263238"></path><path d="M367.77,192.66a9.3,9.3,0,0,0-6.43,9c.14,3.87,2.74,7.42,2.46,11.28-.24,3.38-2.67,6.46-2.28,9.83.48,4.12,4.91,6.76,5.9,10.79.39,1.6.41,3.66,1.9,4.37a4,4,0,0,0,2.46.06l11.16-2.07a8.33,8.33,0,0,0,4.41-1.76c1.65-1.61,1.65-4.22,1.44-6.51a81.74,81.74,0,0,0-2.8-15c-1.45-5.11-3.48-10.19-7-14.13s-6.57-6.39-11.82-5.59" style="fill:#263238"></path><path d="M389.15,170.3s0,.09-.13.23a4.82,4.82,0,0,1-.51.6,7.12,7.12,0,0,1-6.93,1.92,7.47,7.47,0,0,1-4.53-3.5l.34.09a10.19,10.19,0,0,1-13.64-3.93l.34.09a8,8,0,0,1-5.55,1,7.59,7.59,0,0,1-3.94-2.05,7.51,7.51,0,0,1-1.66-2.37,6.89,6.89,0,0,1-.26-.73,1,1,0,0,1-.05-.26,10.13,10.13,0,0,1,.46.92,8.06,8.06,0,0,0,1.71,2.23,7.5,7.5,0,0,0,3.81,1.85,7.59,7.59,0,0,0,5.22-1l.23-.14.12.23a9.79,9.79,0,0,0,13,3.74l.21-.12.12.21a7.07,7.07,0,0,0,4.21,3.34,6.92,6.92,0,0,0,4.27-.16A7.58,7.58,0,0,0,388.4,171C388.9,170.57,389.13,170.28,389.15,170.3Z" style="fill:#455a64"></path><path d="M382.47,164.71s-.46-.19-1.32-.37a6.07,6.07,0,0,0-3.59.36l-.17.07-.07-.17a8.85,8.85,0,0,0-9.82-4.8,4.11,4.11,0,0,1-1.87-.1,2.35,2.35,0,0,1-1.34-1.28,13.23,13.23,0,0,1-.56-1.59,15.41,15.41,0,0,0-.57-1.44,12.77,12.77,0,0,0-3.27-4.23,16.42,16.42,0,0,0-4.29-2.52s.12,0,.35.06a7.15,7.15,0,0,1,1,.31,11.67,11.67,0,0,1,3.22,1.87,12.71,12.71,0,0,1,3.46,4.3,11.19,11.19,0,0,1,.61,1.5,13.61,13.61,0,0,0,.55,1.52,1.86,1.86,0,0,0,1.06,1,3.5,3.5,0,0,0,1.62.06,9.21,9.21,0,0,1,6.57,1.08,8.9,8.9,0,0,1,3.65,4.09l-.24-.09a6,6,0,0,1,3.79-.22,4.75,4.75,0,0,1,1,.38C382.38,164.63,382.48,164.7,382.47,164.71Z" style="fill:#455a64"></path><path d="M309.84,170.12a5.39,5.39,0,0,1-.29-1.22,26.7,26.7,0,0,1-.42-3.37,12.15,12.15,0,0,1,.7-5,8.29,8.29,0,0,1,1.58-2.59,14.71,14.71,0,0,1,2.55-2,4.15,4.15,0,0,0,1.75-2.37,24.11,24.11,0,0,0,.5-2.88,8.25,8.25,0,0,1,2.25-4.53,8,8,0,0,1,2.83-1.91,6.08,6.08,0,0,1,.89-.27c.21-.05.32-.06.33,0s-.42.16-1.14.49a8.81,8.81,0,0,0-2.64,2,8.06,8.06,0,0,0-2.05,4.35,21.36,21.36,0,0,1-.48,3,4.53,4.53,0,0,1-.71,1.49,5.79,5.79,0,0,1-1.22,1.15,15.65,15.65,0,0,0-2.49,1.9,8,8,0,0,0-1.51,2.42,12.51,12.51,0,0,0-.78,4.83C309.6,168.35,309.94,170.1,309.84,170.12Z" style="fill:#455a64"></path><path d="M359.3,162.59c-.06,0,.13-.49.12-1.36a5.65,5.65,0,0,0-1.34-3.37,8.63,8.63,0,0,0-4.55-2.89,63.84,63.84,0,0,0-6.73-1.22A21.6,21.6,0,0,1,335.75,148a18.76,18.76,0,0,1-2.48-2.88,6,6,0,0,1-.72-1.2,38.35,38.35,0,0,0,3.45,3.82,22.48,22.48,0,0,0,10.9,5.47,59.59,59.59,0,0,1,6.77,1.27,8.83,8.83,0,0,1,4.7,3.12,5.7,5.7,0,0,1,1.25,3.6,3.69,3.69,0,0,1-.18,1A1.27,1.27,0,0,1,359.3,162.59Z" style="fill:#455a64"></path><path d="M348,149.23a8.11,8.11,0,0,1-2.49-.43,21.55,21.55,0,0,1-10.27-6.37,8.4,8.4,0,0,1-1.48-2,35.17,35.17,0,0,0,6.43,5.52A34.66,34.66,0,0,0,348,149.23Z" style="fill:#455a64"></path><path d="M359,150.26c-.1,0-.48-1.33-1.53-3.31a22.33,22.33,0,0,0-2.14-3.28,25.06,25.06,0,0,0-3.36-3.42,25.46,25.46,0,0,0-4-2.63,22.73,22.73,0,0,0-3.64-1.47c-2.14-.64-3.55-.75-3.53-.85a3.07,3.07,0,0,1,1,0,7,7,0,0,1,1.15.15,11.65,11.65,0,0,1,1.5.32,19.75,19.75,0,0,1,3.75,1.39,23.17,23.17,0,0,1,4.13,2.66,22.84,22.84,0,0,1,3.4,3.53,19.26,19.26,0,0,1,2.1,3.41,13.08,13.08,0,0,1,.61,1.41,7.4,7.4,0,0,1,.37,1.09A4.23,4.23,0,0,1,359,150.26Z" style="fill:#455a64"></path><path d="M392.08,232.92s0-.27,0-.77a4.11,4.11,0,0,0-.72-2,8.05,8.05,0,0,0-2.56-2.26,29.9,29.9,0,0,0-4.23-1.79,13.22,13.22,0,0,1-2.43-1.23,6.05,6.05,0,0,1-2.07-2.16,5.65,5.65,0,0,1-.57-3.16,12.15,12.15,0,0,1,1-3.23c.89-2.09,2.2-4.15,2.56-6.53a5.47,5.47,0,0,0-.63-3.47,10.24,10.24,0,0,0-2.54-2.77c-1-.83-2.05-1.6-3-2.48a7.72,7.72,0,0,1-2.18-3.17,6.46,6.46,0,0,1-.05-3.72,23.48,23.48,0,0,1,1.18-3.31,14.56,14.56,0,0,0,1.45-6.13,14.3,14.3,0,0,0-1.13-5.37,15.36,15.36,0,0,0-2.38-3.89,14.47,14.47,0,0,0-2.57-2.32,25.68,25.68,0,0,0-2.58-1.45,3.52,3.52,0,0,1,.73.26,10.56,10.56,0,0,1,2,1,13.33,13.33,0,0,1,2.66,2.29,14.92,14.92,0,0,1,2.5,3.93,14.4,14.4,0,0,1,1.23,5.52,14.85,14.85,0,0,1-1.44,6.31,25,25,0,0,0-1.14,3.25,6.1,6.1,0,0,0,.05,3.44,7.33,7.33,0,0,0,2.06,2.95c.91.85,2,1.61,3,2.46a10.54,10.54,0,0,1,2.66,2.91,6,6,0,0,1,.68,3.8c-.39,2.54-1.74,4.6-2.62,6.66a11.3,11.3,0,0,0-1,3.08,5.2,5.2,0,0,0,.5,2.91c.92,1.73,2.72,2.59,4.25,3.25a28.23,28.23,0,0,1,4.24,1.89,7.94,7.94,0,0,1,2.58,2.39,4,4,0,0,1,.65,2.13A2.16,2.16,0,0,1,392.08,232.92Z" style="fill:#455a64"></path><path d="M407.76,227.58a8.49,8.49,0,0,1-2.64-.85,12.39,12.39,0,0,1-5.45-5.2,11.9,11.9,0,0,1-1.46-5.05c-.14-1.9.05-3.91,0-6s-.33-4.36-1.86-6-3.88-2.33-6.18-3a21.61,21.61,0,0,1-3.43-1.25,6.7,6.7,0,0,1-2.76-2.29,6.11,6.11,0,0,1-1-3.32,18.21,18.21,0,0,1,.26-3.27,22,22,0,0,0-4-17.62c-1.08-1.41-1.8-2.09-1.76-2.13a4.22,4.22,0,0,1,.53.48,15,15,0,0,1,1.39,1.53,21.08,21.08,0,0,1,3.61,6.65,22.14,22.14,0,0,1,1,5.15,23.83,23.83,0,0,1-.34,6,16.78,16.78,0,0,0-.24,3.18,5.59,5.59,0,0,0,.93,3.06,6.26,6.26,0,0,0,2.56,2.11,21.76,21.76,0,0,0,3.35,1.21,31.65,31.65,0,0,1,3.44,1.17,8.21,8.21,0,0,1,3,2,7,7,0,0,1,1.61,3.07,13.79,13.79,0,0,1,.36,3.28c0,2.12-.19,4.12-.06,6a11.48,11.48,0,0,0,1.34,4.91,12.59,12.59,0,0,0,5.22,5.19A20.17,20.17,0,0,0,407.76,227.58Z" style="fill:#455a64"></path><path d="M366.42,193.15a5.58,5.58,0,0,1,.55,1.14l1.33,3.2.9,2.22a21,21,0,0,1,.92,2.62,5.11,5.11,0,0,1-.14,3.13,3,3,0,0,1-2.74,1.92,2.36,2.36,0,0,1-1.65-.75,4,4,0,0,1-.83-1.49,14.84,14.84,0,0,1-.48-3c-.16-1.94-.18-3.69-.18-5.15s.06-2.65.1-3.47a6.81,6.81,0,0,1,.11-1.26,5.35,5.35,0,0,1,.09,1.27c0,.92,0,2.08.07,3.46s.11,3.19.29,5.11a14.15,14.15,0,0,0,.49,2.92,3.34,3.34,0,0,0,.72,1.29,1.81,1.81,0,0,0,1.28.59,2.46,2.46,0,0,0,2.26-1.6,4.62,4.62,0,0,0,.14-2.82,19.85,19.85,0,0,0-.85-2.57l-.84-2.24c-.47-1.3-.86-2.39-1.18-3.26A6.88,6.88,0,0,1,366.42,193.15Z" style="fill:#fafafa"></path><path d="M368.19,207.13c0,.07-.24.23-.29.65a.78.78,0,0,0,.17.63.72.72,0,0,0,1.18-.38.87.87,0,0,0-.23-.61c-.29-.31-.61-.28-.62-.36s.36-.27.86.08a1.16,1.16,0,0,1,.47.91,1.17,1.17,0,0,1-2,.66,1.15,1.15,0,0,1-.15-1C367.74,207.12,368.19,207.06,368.19,207.13Z" style="fill:#fafafa"></path><path d="M367.79,155.41a5,5,0,0,1,.22,1.86,14.34,14.34,0,0,1-2.81,8.52,4.77,4.77,0,0,1-1.29,1.36,26.63,26.63,0,0,0,2.88-5.56A26.61,26.61,0,0,0,367.79,155.41Z" style="fill:#000000"></path><path d="M370.05,156.7a4.82,4.82,0,0,1,.23,1.86,14.37,14.37,0,0,1-.73,4.48,14.16,14.16,0,0,1-2.08,4,5.09,5.09,0,0,1-1.29,1.37,27.2,27.2,0,0,0,2.88-5.56A26.89,26.89,0,0,0,370.05,156.7Z" style="fill:#000000"></path><path d="M71,283.39,60.28,312.11l-8.07-64.86a23,23,0,0,1,2.37-12,24.2,24.2,0,0,1,2.89-4.66,25.37,25.37,0,0,1,5-4.67c1.83-1,1.5-3.74-.36-4s-7,2.54-11,8-4.43-5.06-4.65-8.89-1.47-15.65-2.7-16.49c-1.8-1.22-3.49.53-3.18,4.35S41,224.3,39,224.37s-2.86-19.47-2.86-19.47.48-4.23-1.86-4.22c-4.22,0-1.77,20.68-1.49,22.63.2,1.37-2,1.53-2.13.05S30.26,203.84,26,203.8c-3.3,0,1.85,17-.16,20.85s-2.59-13.36-5.74-13.26c-1.17,0-2.05.24-.3,10,.95,5.25,4.41,12.82,5.48,23.08l.28,2.66c.19,12.79,1.7,61,13.32,90.3,7,17.71,31.25,20.1,41.79,4.23a221.38,221.38,0,0,0,22.71-44.24Z" style="fill:#ffad9d"></path><path d="M31.53,239.16c0,.09.66.08,1.68.44a6,6,0,0,1,3.24,2.68l.4.71.23-.79a9.92,9.92,0,0,1,1.56-3.12,11.33,11.33,0,0,1,5.39-4c1.66-.6,2.79-.56,2.79-.7a5.43,5.43,0,0,0-2.94.2,10.8,10.8,0,0,0-5.84,4A9.86,9.86,0,0,0,36.42,242l.63-.08a6.08,6.08,0,0,0-3.72-2.75A2.86,2.86,0,0,0,31.53,239.16Z" style="fill:#e88774"></path><path d="M59,353s0-.36-.29-1a5.34,5.34,0,0,0-1.91-2.14c-1-.76-2.43-1.43-3.86-2.59A8.87,8.87,0,0,1,50,341.89a16,16,0,0,1,.66-7.45c.76-2.59,1.94-5.22,2.75-8.1a19.69,19.69,0,0,0,.75-4.5,10.52,10.52,0,0,0-.79-4.61c-1.25-3-4-5.2-6.57-7.45a31.86,31.86,0,0,1-3.73-3.61,12.2,12.2,0,0,1-2.41-4.46c-.92-3.28-.32-6.57.39-9.47s1.62-5.67,2.08-8.29a22.88,22.88,0,0,0,.13-7.36,24.4,24.4,0,0,0-3.84-9.93,27.74,27.74,0,0,0-1.78-2.32l-.5-.57a1.6,1.6,0,0,1-.16-.21,17.66,17.66,0,0,1,2.61,3,23.94,23.94,0,0,1,4,10,23,23,0,0,1-.07,7.49c-.45,2.67-1.32,5.41-2,8.33s-1.26,6.1-.37,9.22a11.48,11.48,0,0,0,2.32,4.26,31,31,0,0,0,3.67,3.56c1.31,1.13,2.64,2.23,3.83,3.47A13.76,13.76,0,0,1,53.85,317a11,11,0,0,1,.82,4.83,20.29,20.29,0,0,1-.79,4.61c-.84,2.93-2,5.54-2.79,8.1a15.71,15.71,0,0,0-.72,7.26,8.62,8.62,0,0,0,2.72,5.26c1.37,1.14,2.79,1.85,3.79,2.65A5.29,5.29,0,0,1,58.77,352a3.4,3.4,0,0,1,.17.75A2.49,2.49,0,0,1,59,353Z" style="fill:#263238"></path><path d="M42.62,272.07A16,16,0,0,0,46.38,270a12.43,12.43,0,0,0,3-3.55A11.49,11.49,0,0,0,50.87,261l.34.25h-.08l-.09,0-.17.07-.35.13c-.24.09-.45.21-.68.31a14.16,14.16,0,0,0-1.26.72,13.13,13.13,0,0,0-2.11,1.76,13,13,0,0,0-2.61,3.85,18.15,18.15,0,0,0-1.14,4.17,3.83,3.83,0,0,1,0-1.18,11.12,11.12,0,0,1,.79-3.14,12.91,12.91,0,0,1,2.6-4,13.16,13.16,0,0,1,2.18-1.84,12.09,12.09,0,0,1,1.31-.76c.24-.11.46-.24.71-.33l.36-.14.19-.07.09,0,0,0h0l.35.25a11.64,11.64,0,0,1-1.61,5.66,12.11,12.11,0,0,1-3.18,3.6,10.46,10.46,0,0,1-2.85,1.54A3.77,3.77,0,0,1,42.62,272.07Z" style="fill:#263238"></path><path d="M49.24,263.44a55.7,55.7,0,0,1-3.52,4.5,54,54,0,0,1-3.58,4.46,22.1,22.1,0,0,1,3.17-4.78A22.58,22.58,0,0,1,49.24,263.44Z" style="fill:#263238"></path><path d="M48.17,310.13a16.18,16.18,0,0,0,3.43-2.64,12.2,12.2,0,0,0,2.46-3.93,11.41,11.41,0,0,0,.72-5.59c.75.39.21.11.37.2h0l0,0-.09,0-.16.09-.33.19c-.22.11-.41.27-.62.4a11.34,11.34,0,0,0-1.15.89,12.48,12.48,0,0,0-1.84,2,12.85,12.85,0,0,0-2,4.18,18.23,18.23,0,0,0-.54,4.29,3.79,3.79,0,0,1-.16-1.17,11.58,11.58,0,0,1,.34-3.22,12.75,12.75,0,0,1,2-4.36,12.14,12.14,0,0,1,1.89-2.14c.38-.32.77-.65,1.19-.94.22-.13.42-.3.66-.42l.34-.19.17-.1.09-.05,0,0h0l.38.19a11.77,11.77,0,0,1-.79,5.84,12.12,12.12,0,0,1-2.65,4,10.33,10.33,0,0,1-2.59,1.93A4.11,4.11,0,0,1,48.17,310.13Z" style="fill:#263238"></path><path d="M53.51,300.65a56.2,56.2,0,0,1-2.85,5,55.25,55.25,0,0,1-2.91,4.92,21.82,21.82,0,0,1,2.46-5.18A22.16,22.16,0,0,1,53.51,300.65Z" style="fill:#263238"></path><path d="M51.85,332.15a16.64,16.64,0,0,0,4.22-.9A12.21,12.21,0,0,0,60,328.76,11.46,11.46,0,0,0,63.05,324l.25.33h-.37l-.38,0c-.25,0-.49.07-.74.1a12.3,12.3,0,0,0-4,1.35,13.31,13.31,0,0,0-3.64,2.9,18.41,18.41,0,0,0-2.33,3.64,3.82,3.82,0,0,1,.36-1.12,11.54,11.54,0,0,1,1.69-2.76,13,13,0,0,1,6.32-4.19,11.79,11.79,0,0,1,1.48-.33c.26,0,.51-.09.77-.1l.39,0h.39c.12.16-.25-.34.26.34a11.56,11.56,0,0,1-3.22,4.93,12.06,12.06,0,0,1-4.12,2.48,10.84,10.84,0,0,1-3.17.63A3.75,3.75,0,0,1,51.85,332.15Z" style="fill:#263238"></path><path d="M60.75,325.89c.07.13-2.11,1.47-4.71,3.25a54.62,54.62,0,0,1-4.75,3.18,22.52,22.52,0,0,1,4.46-3.61A22.28,22.28,0,0,1,60.75,325.89Z" style="fill:#263238"></path><path d="M41.44,291.52a15.7,15.7,0,0,0,4.23-.92,12.15,12.15,0,0,0,3.91-2.5,11.34,11.34,0,0,0,3-4.74c.52.67.14.18.25.34h-.37l-.37,0c-.25,0-.49.07-.74.1a11.06,11.06,0,0,0-1.41.31,12.08,12.08,0,0,0-2.54,1,13.16,13.16,0,0,0-3.63,2.91,18.2,18.2,0,0,0-2.32,3.65,3.92,3.92,0,0,1,.36-1.12,10.85,10.85,0,0,1,1.68-2.77,12.83,12.83,0,0,1,3.67-3.09,13,13,0,0,1,2.63-1.12,13.87,13.87,0,0,1,1.48-.34c.25,0,.51-.09.77-.1l.39,0h.39c.11.16-.25-.34.26.34a11.66,11.66,0,0,1-3.2,4.94A12.2,12.2,0,0,1,45.8,291a10.59,10.59,0,0,1-3.17.64A3.85,3.85,0,0,1,41.44,291.52Z" style="fill:#263238"></path><path d="M50.32,285.23a54.66,54.66,0,0,1-4.7,3.26c-2.6,1.78-4.64,3.32-4.73,3.21a22.26,22.26,0,0,1,4.44-3.64A22.66,22.66,0,0,1,50.32,285.23Z" style="fill:#263238"></path><path d="M43.6,282a16.34,16.34,0,0,0-2.09-3.78,12.15,12.15,0,0,0-3.51-3,11.49,11.49,0,0,0-5.42-1.56c.51-.68.14-.18.26-.34h0v0l0,.05,0,.09.07.17.13.35c.08.24.21.46.3.68a13,13,0,0,0,.71,1.27,12.74,12.74,0,0,0,1.73,2.13,13,13,0,0,0,3.83,2.65,17.75,17.75,0,0,0,4.16,1.18,4.11,4.11,0,0,1-1.18,0,11.24,11.24,0,0,1-3.13-.82,12.94,12.94,0,0,1-4-2.64,12.76,12.76,0,0,1-1.82-2.2,10.69,10.69,0,0,1-.75-1.32c-.11-.24-.23-.46-.32-.71l-.14-.37-.07-.18,0-.09,0-.05v0h0l.25-.35a11.67,11.67,0,0,1,5.65,1.66A12.07,12.07,0,0,1,41.81,278a10.36,10.36,0,0,1,1.51,2.85A4,4,0,0,1,43.6,282Z" style="fill:#263238"></path><path d="M35,275.28c.1-.1,2,1.6,4.46,3.57a55.19,55.19,0,0,1,4.43,3.63,22.27,22.27,0,0,1-4.75-3.22A21.87,21.87,0,0,1,35,275.28Z" style="fill:#263238"></path><path d="M54.13,321.78a15.7,15.7,0,0,0-3.21-2.89,12.12,12.12,0,0,0-4.32-1.71,11.31,11.31,0,0,0-5.62.31c.25-.81.07-.22.12-.4h0v0l0,0,.06.08.12.14.24.29c.16.19.35.36.51.54a12.27,12.27,0,0,0,1.09,1,12.62,12.62,0,0,0,2.33,1.45A13,13,0,0,0,50,321.85a18.17,18.17,0,0,0,4.32-.25,3.86,3.86,0,0,1-1.13.37,11.49,11.49,0,0,1-3.22.25A12.73,12.73,0,0,1,45.31,321a12.18,12.18,0,0,1-2.44-1.47,10.74,10.74,0,0,1-1.14-1c-.18-.19-.37-.36-.54-.57l-.25-.3-.13-.15-.06-.08,0,0,0,0h0c.06-.18-.13.4.12-.41a11.64,11.64,0,0,1,5.88-.28,12,12,0,0,1,4.43,1.87,10.38,10.38,0,0,1,2.37,2.2A3.84,3.84,0,0,1,54.13,321.78Z" style="fill:#263238"></path><path d="M43.84,318.25c.06-.13,2.43.84,5.39,1.9a56.63,56.63,0,0,1,5.37,2,21.89,21.89,0,0,1-5.55-1.48A22.1,22.1,0,0,1,43.84,318.25Z" style="fill:#263238"></path><path d="M50.29,341.73a16.39,16.39,0,0,0-1.72-4,12.39,12.39,0,0,0-3.21-3.35,11.58,11.58,0,0,0-5.24-2.06l.28-.31h0v.07l0,.09,0,.18.09.36c.06.24.17.47.24.7a10.71,10.71,0,0,0,.59,1.33,12.15,12.15,0,0,0,1.52,2.29,13.25,13.25,0,0,0,3.56,3,18.29,18.29,0,0,0,4,1.57,4.17,4.17,0,0,1-1.18-.13,11.42,11.42,0,0,1-3-1.12,12.82,12.82,0,0,1-3.75-3A12.22,12.22,0,0,1,41,335a10.29,10.29,0,0,1-.62-1.39c-.08-.24-.19-.48-.25-.73l-.11-.38-.05-.19,0-.09,0-.05v0h0c.13-.15-.28.31.28-.33A11.75,11.75,0,0,1,45.64,334a12.29,12.29,0,0,1,3.24,3.55,10.31,10.31,0,0,1,1.24,3A4.41,4.41,0,0,1,50.29,341.73Z" style="fill:#263238"></path><path d="M42.4,334.24a54,54,0,0,1,4.11,4c2.24,2.21,4.15,3.91,4.06,4a22.21,22.21,0,0,1-4.43-3.65A22,22,0,0,1,42.4,334.24Z" style="fill:#263238"></path><path d="M41.85,304.23a16.34,16.34,0,0,0-2.09-3.78,12.28,12.28,0,0,0-3.51-3,11.38,11.38,0,0,0-5.42-1.56c.5-.68.14-.18.26-.34h0v0l0,.05,0,.09.07.17.13.35a7,7,0,0,0,.3.68,13,13,0,0,0,.71,1.27,12.65,12.65,0,0,0,1.73,2.13A13,13,0,0,0,37.92,303a18.39,18.39,0,0,0,4.16,1.18,4.11,4.11,0,0,1-1.18,0,11.24,11.24,0,0,1-3.13-.82,12.81,12.81,0,0,1-4-2.65,12.36,12.36,0,0,1-1.83-2.19,12.09,12.09,0,0,1-.74-1.32,6.43,6.43,0,0,1-.32-.71l-.14-.37-.07-.18,0-.1v-.08h0c.11-.16-.25.33.25-.35A11.71,11.71,0,0,1,36.49,297a11.9,11.9,0,0,1,3.56,3.23,10.44,10.44,0,0,1,1.52,2.85A4.47,4.47,0,0,1,41.85,304.23Z" style="fill:#263238"></path><path d="M33.29,297.52c.1-.1,2,1.6,4.46,3.57a51.87,51.87,0,0,1,4.42,3.63,22.85,22.85,0,0,1-4.75-3.22A22,22,0,0,1,33.29,297.52Z" style="fill:#263238"></path><path d="M36.64,285a2.54,2.54,0,1,1-.27,0" style="fill:#000000"></path><path d="M59.48,337.21a2.53,2.53,0,1,1-.27,0" style="fill:#000000"></path><path d="M256.3,288.9l-37.75-40.16h0a65.46,65.46,0,0,0-25.37-16.42,52.3,52.3,0,0,0-15.9-3h0a63.65,63.65,0,0,1-38.41,0c-1,.12-2.15.25-3.54.4-5.86-1.27-43.27-7.61-60,33.75L63.18,297.2l34.74,17.07,7,30.12-1.3,51.2,112.48-.11L209,352,209,307.18l15.19,19.25Z" style="fill:#263238"></path><path d="M132,174.54a4,4,0,0,1-5.09,5.24c-2.75-1.05-3.44-4.62-3.22-7.55s.88-6.11-.59-8.65c-1.13-1.94-3.27-3-5-4.48a12.69,12.69,0,0,1-4.6-10.35,10.68,10.68,0,0,1,6.45-9.09c3.73-1.46,8.57-.76,11.14-3.82,1.87-2.23,1.66-5.53,3-8.1,2.1-4,7.29-5.1,11.79-4.95s9.16,1.12,13.4-.4c3.54-1.27,6.26-4.11,9.5-6a19.7,19.7,0,0,1,28.26,24.32c-1.09,2.72-3,10.45-11.38,11.2" style="fill:#000000"></path><g style="opacity:0.2"><path d="M132,174.54a4,4,0,0,1-5.09,5.24c-2.75-1.05-3.44-4.62-3.22-7.55s.88-6.11-.59-8.65c-1.13-1.94-3.27-3-5-4.48a12.69,12.69,0,0,1-4.6-10.35,10.68,10.68,0,0,1,6.45-9.09c3.73-1.46,8.57-.76,11.14-3.82,1.87-2.23,1.66-5.53,3-8.1,2.1-4,7.29-5.1,11.79-4.95s9.16,1.12,13.4-.4c3.54-1.27,6.26-4.11,9.5-6a19.7,19.7,0,0,1,28.26,24.32c-1.09,2.72-3,10.45-11.38,11.2"></path></g><path d="M127.51,143.53l.66,6,9.18,89.35c1.07,10.37,10.84,17.71,21.94,16.49h0c11.2-1.24,19.55-10.75,18.64-21.24-1-11-1.74-22.63-1.74-22.63s14-3.63,15.26-22.4c.64-9.34-1.17-24.39-3-36.66a19.62,19.62,0,0,0-23.19-16.29Z" style="fill:#ffad9d"></path><path d="M183.11,162.78a2.38,2.38,0,0,1-2.07,2.6,2.29,2.29,0,0,1-2.64-1.93,2.38,2.38,0,0,1,2.07-2.6A2.29,2.29,0,0,1,183.11,162.78Z" style="fill:#263238"></path><path d="M185.83,160.55c-.27.33-2.19-.84-4.74-.6s-4.31,1.68-4.62,1.39c-.15-.13.1-.71.87-1.38a6.6,6.6,0,0,1,3.66-1.5,6.29,6.29,0,0,1,3.8.87C185.64,159.86,186,160.4,185.83,160.55Z" style="fill:#263238"></path><path d="M157.57,165.34a2.38,2.38,0,0,1-2.07,2.6,2.28,2.28,0,0,1-2.64-1.92,2.37,2.37,0,0,1,2.07-2.6A2.28,2.28,0,0,1,157.57,165.34Z" style="fill:#263238"></path><path d="M160.76,163.27c-.27.33-2.19-.84-4.74-.6s-4.31,1.68-4.62,1.39c-.15-.13.1-.71.87-1.38a6.6,6.6,0,0,1,3.66-1.5,6.29,6.29,0,0,1,3.8.87C160.57,162.58,160.89,163.12,160.76,163.27Z" style="fill:#263238"></path><path d="M171.72,181.38c0-.14,1.54-.56,4.08-1.12.65-.12,1.26-.31,1.33-.76a3.38,3.38,0,0,0-.61-1.9l-2.38-4.79c-3.31-6.83-5.76-12.48-5.49-12.61s3.19,5.3,6.5,12.14l2.29,4.83a3.84,3.84,0,0,1,.57,2.53,1.65,1.65,0,0,1-1,1.05,4.78,4.78,0,0,1-1.09.25C173.35,181.37,171.74,181.53,171.72,181.38Z" style="fill:#263238"></path><path d="M176.19,211.46a47.36,47.36,0,0,1-25.39-4.4s7.32,12.13,25.7,8.75Z" style="fill:#e88774"></path><path d="M160.52,153.2c-.19.71-2.77.61-5.73,1.24s-5.32,1.66-5.77,1.08c-.2-.29.16-1,1.08-1.74a10.19,10.19,0,0,1,8.76-1.76C160,152.36,160.6,152.86,160.52,153.2Z" style="fill:#000000"></path><path d="M184.23,153.24c-.4.62-2.22.17-4.33.33s-3.88.74-4.34.17c-.21-.28,0-.88.75-1.5a6.28,6.28,0,0,1,7-.41C184.1,152.36,184.4,152.94,184.23,153.24Z" style="fill:#000000"></path><g style="opacity:0.2"><path d="M160.52,153.2c-.19.71-2.77.61-5.73,1.24s-5.32,1.66-5.77,1.08c-.2-.29.16-1,1.08-1.74a10.19,10.19,0,0,1,8.76-1.76C160,152.36,160.6,152.86,160.52,153.2Z"></path></g><g style="opacity:0.2"><path d="M184.23,153.24c-.4.62-2.22.17-4.33.33s-3.88.74-4.34.17c-.21-.28,0-.88.75-1.5a6.28,6.28,0,0,1,7-.41C184.1,152.36,184.4,152.94,184.23,153.24Z"></path></g><path d="M188.28,144.14s-9,5.79-22.22,1.08c-8.67-3.08-18.44-3.92-20.35-2s-1.32,10.37-9.12,13.81c0,0,2.51,16-4,16.21s-8.39-32.2-8.39-32.2l17.64-2.53,16.72-5.31,16.39.32,12.89,1.9Z" style="fill:#000000"></path><g style="opacity:0.2"><path d="M188.28,144.14s-9,5.79-22.22,1.08c-8.67-3.08-18.44-3.92-20.35-2s-1.32,10.37-9.12,13.81c0,0,2.51,16-4,16.21s-8.39-32.2-8.39-32.2l17.64-2.53,16.72-5.31,16.39.32,12.89,1.9Z"></path></g><path d="M123.38,136.46c-.11-.23,1.36-.94,3.19-.45s2.77,1.81,2.56,2-1.26-.64-2.8-1S123.46,136.73,123.38,136.46Z" style="fill:#000000"></path><path d="M128.23,130.54c.3,0,.37,1.9.9,4.05s1.61,3.66,1.4,3.85-1.75-1.19-2.34-3.61S128,130.53,128.23,130.54Z" style="fill:#000000"></path><g style="opacity:0.2"><path d="M123.38,136.46c-.11-.23,1.36-.94,3.19-.45s2.77,1.81,2.56,2-1.26-.64-2.8-1S123.46,136.73,123.38,136.46Z"></path><path d="M128.23,130.54c.3,0,.37,1.9.9,4.05s1.61,3.66,1.4,3.85-1.75-1.19-2.34-3.61S128,130.53,128.23,130.54Z"></path></g><path d="M132.4,166.55c-.27-.11-11-2.71-10.17,8.1s11.52,7.72,11.52,7.41S132.4,166.55,132.4,166.55Z" style="fill:#ffad9d"></path><path d="M130.12,178.22c-.05,0-.18.15-.48.32a1.87,1.87,0,0,1-1.41.14c-1.17-.33-2.28-2.06-2.48-4a6.09,6.09,0,0,1,.31-2.73,2.2,2.2,0,0,1,1.3-1.56,1,1,0,0,1,1.16.43c.16.29.11.51.17.52s.22-.2.1-.64a1.26,1.26,0,0,0-.48-.64,1.42,1.42,0,0,0-1.07-.19,2.67,2.67,0,0,0-1.83,1.83,6.4,6.4,0,0,0-.41,3.06c.24,2.17,1.51,4.12,3.11,4.45a2,2,0,0,0,1.7-.42C130.12,178.49,130.16,178.24,130.12,178.22Z" style="fill:#eb996e"></path><path d="M176.35,113.65a.68.68,0,0,1,.23,0,6.78,6.78,0,0,1,.7.08,7.66,7.66,0,0,1,2.53.91,8.94,8.94,0,0,1,3.11,2.89,8,8,0,0,1,1.33,5.44,9,9,0,0,1-3.41,5.87,8.3,8.3,0,0,1-3.49,1.61,6.74,6.74,0,0,1-4.06-.54,4.47,4.47,0,0,1-2.69-3.32,4,4,0,0,1,.37-2.26,5.41,5.41,0,0,1,1.47-1.79,9.54,9.54,0,0,1,4.25-1.86,16.68,16.68,0,0,1,4.74-.18,13.33,13.33,0,0,1,8.35,4,11,11,0,0,1,3.16,8,12.27,12.27,0,0,1-3,7.22,15.28,15.28,0,0,1-5.46,4.09,24.56,24.56,0,0,1-9.64,1.95c-1.16,0-2.06,0-2.67-.06l-.7,0c-.16,0-.24,0-.23,0h.93c.61,0,1.51,0,2.67-.05a25.16,25.16,0,0,0,9.49-2.07,15.06,15.06,0,0,0,5.28-4,11.77,11.77,0,0,0,2.82-7,10.52,10.52,0,0,0-3.05-7.6,12.85,12.85,0,0,0-8-3.8c-3.07-.28-6.33.11-8.62,1.93a3.94,3.94,0,0,0-1.66,3.58,4,4,0,0,0,2.4,3,6.32,6.32,0,0,0,3.76.52,8,8,0,0,0,3.32-1.5,8.67,8.67,0,0,0,3.3-5.57,7.68,7.68,0,0,0-1.21-5.24,8.9,8.9,0,0,0-3-2.88A9.47,9.47,0,0,0,176.35,113.65Z" style="fill:#fff"></path><path d="M174.77,189.12c-.63,2.5-3.22,4.67-6,4.17-3.18-.58-4.78-4.3-4.57-6.58Z" style="fill:#fff"></path><path d="M161.8,184.45c-.11-.09.24-.7.79-1.35s1.08-1.11,1.19-1-.25.7-.79,1.35S161.91,184.54,161.8,184.45Z" style="fill:#000000"></path><path d="M164.12,185c-.12-.08.17-.68.63-1.33s.94-1.11,1.06-1-.17.68-.63,1.33S164.24,185.06,164.12,185Z" style="fill:#000000"></path><path d="M166.22,186.05c-.14,0,0-.8.38-1.64s.93-1.41,1-1.33-.19.75-.57,1.55S166.36,186.1,166.22,186.05Z" style="fill:#000000"></path><path d="M168.84,185.92c-.14,0-.12-.7,0-1.5s.42-1.42.56-1.39.12.7,0,1.5S169,186,168.84,185.92Z" style="fill:#000000"></path><path d="M171,186.88c-.14,0-.12-.79,0-1.7s.41-1.64.55-1.61.13.79,0,1.7S171.13,186.9,171,186.88Z" style="fill:#000000"></path><path d="M173.58,186.87c-.14,0-.24-.62-.22-1.38s.15-1.37.29-1.37.25.63.23,1.39S173.72,186.88,173.58,186.87Z" style="fill:#000000"></path><path d="M175.76,187.73c-.15,0-.27-.86-.43-1.9s-.27-1.91-.13-2,.49.78.65,1.87S175.9,187.73,175.76,187.73Z" style="fill:#000000"></path><path d="M177.8,186.92c-.14,0-.36-.59-.48-1.37s-.11-1.42,0-1.44.36.58.48,1.36S178,186.89,177.8,186.92Z" style="fill:#000000"></path><path d="M180.07,186.61c-.14,0-.34-.39-.45-.94s-.08-1,.07-1,.34.39.45.93S180.22,186.58,180.07,186.61Z" style="fill:#000000"></path><g style="opacity:0.2"><path d="M161.8,184.45c-.11-.09.24-.7.79-1.35s1.08-1.11,1.19-1-.25.7-.79,1.35S161.91,184.54,161.8,184.45Z"></path></g><g style="opacity:0.2"><path d="M164.12,185c-.12-.08.17-.68.63-1.33s.94-1.11,1.06-1-.17.68-.63,1.33S164.24,185.06,164.12,185Z"></path></g><g style="opacity:0.2"><path d="M166.22,186.05c-.14,0,0-.8.38-1.64s.93-1.41,1-1.33-.19.75-.57,1.55S166.36,186.1,166.22,186.05Z"></path></g><g style="opacity:0.2"><path d="M168.84,185.92c-.14,0-.12-.7,0-1.5s.42-1.42.56-1.39.12.7,0,1.5S169,186,168.84,185.92Z"></path></g><g style="opacity:0.2"><path d="M171,186.88c-.14,0-.12-.79,0-1.7s.41-1.64.55-1.61.13.79,0,1.7S171.13,186.9,171,186.88Z"></path></g><g style="opacity:0.2"><path d="M173.58,186.87c-.14,0-.24-.62-.22-1.38s.15-1.37.29-1.37.25.63.23,1.39S173.72,186.88,173.58,186.87Z"></path></g><g style="opacity:0.2"><path d="M175.76,187.73c-.15,0-.27-.86-.43-1.9s-.27-1.91-.13-2,.49.78.65,1.87S175.9,187.73,175.76,187.73Z"></path></g><g style="opacity:0.2"><path d="M177.8,186.92c-.14,0-.36-.59-.48-1.37s-.11-1.42,0-1.44.36.58.48,1.36S178,186.89,177.8,186.92Z"></path></g><g style="opacity:0.2"><path d="M180.07,186.61c-.14,0-.34-.39-.45-.94s-.08-1,.07-1,.34.39.45.93S180.22,186.58,180.07,186.61Z"></path></g><path d="M177.15,199a8.35,8.35,0,0,1-1.29-.49,7.33,7.33,0,0,0-3.2-.39,7.45,7.45,0,0,0-3,1.07c-.72.44-1.1.82-1.16.76s.25-.51.95-1.06a6.34,6.34,0,0,1,6.59-.72C176.8,198.51,177.19,198.9,177.15,199Z" style="fill:#e88774"></path><path d="M332.06,237.27,331.74,224a126,126,0,0,0-37.67-11.32c-26.46-2.21-43.57-6.75-67.33-4.72h0A346.25,346.25,0,0,0,186.36,204c-4.9,6.23-10.17,7.47-10.17,7.47s.44,6.26,1,13.59h0l.08.9c.1,1.26.2,2.54.3,3.83h0l.35,4.32s28.57,10.75,29.95,23.51c1.08,9.95,1.27,90.69,1.27,90.72L209,352l7.05,43.52,80.82.23,14.47-37.83L298,245.69C312.36,232.87,332.06,237.27,332.06,237.27Z" style="fill:#000000"></path><polygon points="243.82 270.27 264.5 271.47 250.55 296.98 266 295.11 248.88 333.47 253.59 306.48 233.66 310.55 243.82 270.27" style="fill:#fafafa"></polygon><path d="M250.12,279l.49,0,1.45,0a24.27,24.27,0,0,1,13.63,4.18,29.08,29.08,0,0,1,4.29,3.49,30.29,30.29,0,0,1,3.87,4.85,31.21,31.21,0,0,1,1.68,2.89,34.48,34.48,0,0,1,1.39,3.21c.45,1.1.75,2.28,1.1,3.46a30.24,30.24,0,0,1,.63,3.73,29.17,29.17,0,0,1-3,15.89,28.48,28.48,0,0,1-12.34,12.85,28.55,28.55,0,0,1-41.82-23.89,31.9,31.9,0,0,1,.61-8.39,29.21,29.21,0,0,1,2.73-7.44,25.64,25.64,0,0,1,4.36-6,27.76,27.76,0,0,1,5.32-4.28,30.66,30.66,0,0,1,10.91-4.16,29.46,29.46,0,0,1,8.83-.25,28.38,28.38,0,0,1,5.44,1.26l1.35.52.46.19L261,281l-1.37-.47a29,29,0,0,0-5.43-1.16,30.51,30.51,0,0,0-19.51,4.53,26.73,26.73,0,0,0-5.23,4.24,25.06,25.06,0,0,0-4.27,5.9,29.27,29.27,0,0,0-2.66,7.34,30.93,30.93,0,0,0-.58,8.26,28.51,28.51,0,0,0,41.1,23.47,28,28,0,0,0,12.15-12.61,28.86,28.86,0,0,0,3-15.64,27.13,27.13,0,0,0-.61-3.66,32.67,32.67,0,0,0-1.07-3.43c-.37-1.12-.9-2.14-1.35-3.18s-1-2-1.65-2.86a30.61,30.61,0,0,0-3.79-4.81,28.67,28.67,0,0,0-4.22-3.49,26.09,26.09,0,0,0-8-3.59,27.63,27.63,0,0,0-5.5-.73h-1.45Z" style="fill:#fafafa"></path><path d="M262,342.92a8.16,8.16,0,0,1-1.44.27c-.46.08-1,.16-1.71.21s-1.43.13-2.28.13a38.68,38.68,0,0,1-5.93-.3,44.68,44.68,0,0,1-7.12-1.55,43.51,43.51,0,0,1-6.72-2.81,38,38,0,0,1-5-3.16c-.7-.48-1.27-1-1.79-1.41a16.68,16.68,0,0,1-1.29-1.15,8.71,8.71,0,0,1-1-1,6.72,6.72,0,0,1,1.16.9,17,17,0,0,0,1.33,1.07c.54.4,1.12.89,1.83,1.34a42.26,42.26,0,0,0,5,3,46.84,46.84,0,0,0,6.66,2.73,46.11,46.11,0,0,0,7,1.58,42,42,0,0,0,5.87.4c.84,0,1.6,0,2.26-.05s1.24-.07,1.71-.12A7.3,7.3,0,0,1,262,342.92Z" style="fill:#fafafa"></path><path d="M237.89,279c0,.16-2.62.7-5.63,2.06s-5.2,3-5.29,2.84a15.33,15.33,0,0,1,5.07-3.31A15.53,15.53,0,0,1,237.89,279Z" style="fill:#fafafa"></path><path d="M282.75,311a6.65,6.65,0,0,1,.33,2.14,23.41,23.41,0,0,1-.25,5.22,23.86,23.86,0,0,1-1.37,5,6.63,6.63,0,0,1-1,1.93,61.27,61.27,0,0,0,1.83-7.06A60,60,0,0,0,282.75,311Z" style="fill:#fafafa"></path><path d="M280.46,386.18a2.83,2.83,0,0,1-.48.14l-1.39.32c-1.21.27-3,.61-5.14,1-4.36.79-10.42,1.7-17.15,2.35s-12.85.91-17.28,1c-2.21,0-4,0-5.24,0l-1.43,0a2.75,2.75,0,0,1-.49-.05,1.61,1.61,0,0,1,.49-.06l1.43-.05,5.23-.16c4.42-.16,10.52-.48,17.24-1.13s12.77-1.5,17.13-2.19l5.17-.84,1.41-.22A1.46,1.46,0,0,1,280.46,386.18Z" style="fill:#263238"></path><path d="M269.16,209.85a1.48,1.48,0,0,1,.07.29l.15.85c.12.75.29,1.85.49,3.28a54.38,54.38,0,0,1,.53,12.21,34,34,0,0,1-.6,4,27.39,27.39,0,0,1-1.2,4.24,25.19,25.19,0,0,1-2,4.27,24.93,24.93,0,0,1-3,4.05,23.18,23.18,0,0,1-20.07,7.83,28.25,28.25,0,0,1-11-3.43,26.23,26.23,0,0,1-8.08-7,30.3,30.3,0,0,1-6-16.92,43.86,43.86,0,0,1,1.49-12.12c.33-1.4.63-2.48.82-3.21l.24-.83a1.08,1.08,0,0,1,.1-.28,1.28,1.28,0,0,1,0,.29c-.05.22-.11.49-.18.84-.18.78-.42,1.86-.74,3.24a45.23,45.23,0,0,0-1.31,12,30.1,30.1,0,0,0,6,16.65,25.85,25.85,0,0,0,7.95,6.88,27.83,27.83,0,0,0,10.79,3.36,22.72,22.72,0,0,0,19.66-7.63,24.31,24.31,0,0,0,2.93-4,25,25,0,0,0,2-4.18,27.27,27.27,0,0,0,1.21-4.18,32.61,32.61,0,0,0,.63-4,57.1,57.1,0,0,0-.36-12.14c-.17-1.4-.3-2.51-.4-3.3,0-.35-.07-.63-.09-.85A1.36,1.36,0,0,1,269.16,209.85Z" style="fill:#fff"></path><g style="opacity:0.2"><path d="M221.39,337.83a39.33,39.33,0,0,0,46.36,33.75c3-.58,6.55-1.41,8.94.55,2.81,2.3,1.88,7.17-.93,9.46s-6.69,2.66-10.32,2.72c-12.3.22-25-2.09-35.12-9.14s-16.92-19.5-14.94-31.64c.43-2.64,2.36-5.86,4.92-5"></path></g><path d="M306,231.15a26.71,26.71,0,0,1-1.91,1.93,19.72,19.72,0,0,0-3.77,5.26,20.47,20.47,0,0,0-1.81,6.22,23.7,23.7,0,0,1-.33,2.7,2.29,2.29,0,0,1-.08-.73,16.38,16.38,0,0,1,.05-2,18,18,0,0,1,1.7-6.41,17.78,17.78,0,0,1,4-5.3A9.9,9.9,0,0,1,306,231.15Z" style="fill:#263238"></path><path d="M220.17,142.81c.58-4.71,1.17-9.46,2.81-13.91s4.48-8.62,8.6-11c5.77-3.28,13.08-2.46,19.22.07,2,.82,4,1.82,6.17,1.78s4.06-1.12,6-2c5.52-2.41,11.94-3.19,17.61-1.16s10.37,7.18,10.94,13.18c.29,3-.23,6.57,2,8.57,1.49,1.32,3.73,1.45,5.3,2.67a4.62,4.62,0,0,1-2.41,8.27,6,6,0,1,1-8.61,8.29" style="fill:#263238"></path><path d="M220.17,142.81c.58-4.71,1.17-9.46,2.81-13.91s4.48-8.62,8.6-11c5.77-3.28,13.08-2.46,19.22.07,2,.82,4,1.82,6.17,1.78s4.06-1.12,6-2c5.52-2.41,11.94-3.19,17.61-1.16s10.37,7.18,10.94,13.18c.29,3-.23,6.57,2,8.57,1.49,1.32,3.73,1.45,5.3,2.67a4.62,4.62,0,0,1-2.41,8.27,6,6,0,1,1-8.61,8.29" style="fill:#263238"></path><path d="M258.86,191c.12.26.24.52.37.77a15,15,0,0,0,21.48,5.85c3.11-2,5.55-5.61,4.83-9.23,1.25,1.77,4,1.94,5.83.72a7.13,7.13,0,0,0,2.75-5.64,21,21,0,0,0-1.08-6.4,5.12,5.12,0,0,0,6.51.16,6.52,6.52,0,0,0,2.14-6.38,9,9,0,0,0-4.05-5.59A5.69,5.69,0,0,0,303.4,158c-1-3.2-4.45-4.88-7.69-5.74s-6.76-1.36-9.24-3.6a11,11,0,0,1-3.22-6.67,32.71,32.71,0,0,1,.08-7.53l-11.75.31Z" style="fill:#263238"></path><path d="M239.91,199A10.51,10.51,0,0,1,220,196.27,9.52,9.52,0,0,1,206,184.74c-1.79,1.87-5.2,1.33-6.83-.68s-1.72-4.93-.88-7.38a23.07,23.07,0,0,1,4.1-6.54c-2.55.29-4.9-2-5.18-4.58a8,8,0,0,1,3-6.72,20.78,20.78,0,0,1,6.8-3.48,33.37,33.37,0,0,0,7.05-3c2.15-1.39,5.53-7.9,5.95-10.42l12-1.16Z" style="fill:#263238"></path><path d="M267,177.79c.19.25-1.6,1.43-4,.87s-3.49-2.38-3.21-2.52,1.5,1,3.47,1.41S266.82,177.49,267,177.79Z" style="fill:#263238"></path><path d="M227.89,132l-.19,6-3.4,89.84c-.39,10.43,8.26,19.07,19.44,19.41h0c11.28.34,20.88-7.91,21.45-18.44.6-11.06,1.43-22.68,1.43-22.68s14.36-1.63,18.27-20.06c1.94-9.17,2.25-24.34,2.1-36.76a19.64,19.64,0,0,0-20.7-19.4Z" style="fill:#ffbe9d"></path><path d="M281,159.66a2.38,2.38,0,0,1-2.42,2.29,2.29,2.29,0,0,1-2.35-2.28,2.38,2.38,0,0,1,2.42-2.28A2.27,2.27,0,0,1,281,159.66Z" style="fill:#263238"></path><path d="M283.3,157c-.31.3-2.05-1.13-4.61-1.26s-4.51,1.07-4.77.74c-.13-.15.2-.69,1.05-1.25a6.54,6.54,0,0,1,3.84-1,6.3,6.3,0,0,1,3.65,1.39C283.22,156.31,283.45,156.89,283.3,157Z" style="fill:#263238"></path><path d="M254.6,158.35a2.38,2.38,0,0,1-2.42,2.28,2.27,2.27,0,0,1-2.35-2.27,2.4,2.4,0,0,1,2.42-2.29A2.29,2.29,0,0,1,254.6,158.35Z" style="fill:#263238"></path><path d="M258.07,156.21c-.31.29-2.05-1.13-4.61-1.26s-4.51,1.06-4.77.74c-.13-.15.2-.7,1.05-1.25a6.56,6.56,0,0,1,3.84-1,6.27,6.27,0,0,1,3.65,1.39C258,155.5,258.23,156.08,258.07,156.21Z" style="fill:#263238"></path><path d="M266.41,175.7c0-.15,1.6-.34,4.2-.54.66,0,1.28-.13,1.42-.57a3.29,3.29,0,0,0-.34-2c-.54-1.62-1.09-3.31-1.68-5.09-2.33-7.23-4-13.17-3.68-13.26s2.41,5.7,4.74,12.93c.55,1.79,1.09,3.49,1.59,5.11a3.77,3.77,0,0,1,.21,2.59,1.64,1.64,0,0,1-1.12.9,4.22,4.22,0,0,1-1.12.1C268,175.92,266.41,175.85,266.41,175.7Z" style="fill:#263238"></path><path d="M266.62,206.13a47.28,47.28,0,0,1-24.54-7.91s5.39,13.07,24.07,12.28Z" style="fill:#eb996e"></path><path d="M258.77,177.09c.42,0,.28,2.78,2.56,4.87s5.26,1.95,5.26,2.34c0,.17-.69.5-1.94.47a6.91,6.91,0,0,1-4.4-1.79,6,6,0,0,1-2-4.08C258.23,177.73,258.58,177.06,258.77,177.09Z" style="fill:#263238"></path><path d="M259.25,146.2c-.29.68-2.83.22-5.86.43s-5.5.9-5.87.25c-.16-.3.3-.94,1.31-1.56a9.72,9.72,0,0,1,4.41-1.3,9.87,9.87,0,0,1,4.53.77C258.85,145.29,259.38,145.87,259.25,146.2Z" style="fill:#263238"></path><path d="M282.74,149.55c-.48.56-2.22-.13-4.34-.27s-3.94.19-4.33-.44c-.16-.31.15-.87,1-1.39a6.3,6.3,0,0,1,7,.58C282.74,148.67,283,149.28,282.74,149.55Z" style="fill:#263238"></path><path d="M286.22,138.54s-9.75,4.84-22.57-1.4c-8.41-4.09-18.19-6-20.32-4.33s-2.51,10.33-10.77,12.93c0,0,.73,16.45-5.84,15.93s-1.11-33-1.11-33L240,127.62l17.48-3.48L274,126.3l12.8,3.37Z" style="fill:#263238"></path><path d="M228,156.4c-.27-.14-10.84-4-11.19,7s10.78,9.09,10.81,8.78S228,156.4,228,156.4Z" style="fill:#ffbe9d"></path><path d="M224.36,167.94c-.05,0-.2.12-.53.26a1.89,1.89,0,0,1-1.43,0c-1.15-.47-2.07-2.35-2.06-4.33a6.27,6.27,0,0,1,.62-2.73,2.22,2.22,0,0,1,1.49-1.43,1,1,0,0,1,1.12.56c.13.31.06.53.12.55s.24-.17.16-.63a1.26,1.26,0,0,0-.41-.71,1.47,1.47,0,0,0-1.05-.31,2.71,2.71,0,0,0-2.06,1.64,6.56,6.56,0,0,0-.76,3c0,2.22,1.07,4.34,2.64,4.85a2.09,2.09,0,0,0,1.77-.24C224.33,168.2,224.39,168,224.36,167.94Z" style="fill:#eb996e"></path><path d="M227.32,176.41a1.29,1.29,0,0,1-.2.66,3.25,3.25,0,0,1-1.3,1.35,3.48,3.48,0,0,1-2.78.35,4,4,0,0,1-2.55-2.28,4.29,4.29,0,0,1,.12-3.42,4.35,4.35,0,0,1,1.94-2,4.43,4.43,0,0,1,1.8-.5c.45,0,.69,0,.69.06a7.52,7.52,0,0,0-2.32.75,4.15,4.15,0,0,0-1.69,1.89,3.94,3.94,0,0,0-.08,3,3.64,3.64,0,0,0,2.23,2,3.22,3.22,0,0,0,2.47-.21A4.38,4.38,0,0,0,227.32,176.41Z" style="fill:#455a64"></path><path d="M234.78,119a14.9,14.9,0,0,0,5.16-10.31,9.52,9.52,0,0,0-1.54-6.19,7.93,7.93,0,0,0-5.44-3,10.65,10.65,0,0,0-6.17,1.3,11.5,11.5,0,0,0-5.22,5.64,9.22,9.22,0,0,0,.24,7.59,10.21,10.21,0,0,0,6.8,5,17.71,17.71,0,0,0,8.58-.38" style="fill:#263238"></path><path d="M239.89,113.31a5.52,5.52,0,0,1-1.33,1.68,13.69,13.69,0,0,1-4.34,2.83,13.9,13.9,0,0,1-5.08,1,5.7,5.7,0,0,1-2.13-.26,16.75,16.75,0,0,1,2.11-.1,15.87,15.87,0,0,0,9.19-3.75A20.12,20.12,0,0,1,239.89,113.31Z" style="fill:#455a64"></path><path d="M239.17,114.27a2.09,2.09,0,0,1,.58.09l.69.14.92.3a26.14,26.14,0,0,1,5.43,2.84c2.18,1.35,4.67,3.25,7.86,4.33a11.41,11.41,0,0,0,5.17.5c1.81-.22,3.66-.76,5.59-1.18a13.44,13.44,0,0,1,5.81-.19,9.93,9.93,0,0,1,4.73,2.65,10.56,10.56,0,0,1,3.22,8.36,12.7,12.7,0,0,1-1.82,5.84,12.14,12.14,0,0,1-1,1.35,3.07,3.07,0,0,1-.4.43s.49-.64,1.2-1.88a12.9,12.9,0,0,0,1.63-5.76,10.84,10.84,0,0,0-.61-4.07,10.52,10.52,0,0,0-2.58-3.93,9.64,9.64,0,0,0-4.5-2.5,13.11,13.11,0,0,0-5.59.21c-1.91.41-3.77,1-5.64,1.18a11.88,11.88,0,0,1-5.38-.55c-3.3-1.15-5.76-3.1-7.92-4.48a28.29,28.29,0,0,0-5.3-3l-.89-.34-.67-.19A3.78,3.78,0,0,1,239.17,114.27Z" style="fill:#455a64"></path><path d="M279.34,116.56a2.82,2.82,0,0,1,1.12.1,8.2,8.2,0,0,1,2.8,1.19,10.3,10.3,0,0,1,3.14,3.27,12.49,12.49,0,0,1,1.67,5.28,20.58,20.58,0,0,1-1.81,9.8c-.5,1.17-1,2.1-1.3,2.73a4.09,4.09,0,0,1-.57.95c-.08,0,.61-1.46,1.53-3.82a21.74,21.74,0,0,0,1.63-9.61,12.52,12.52,0,0,0-1.56-5.09,10.6,10.6,0,0,0-2.93-3.21A10.82,10.82,0,0,0,279.34,116.56Z" style="fill:#455a64"></path><path d="M232.54,117.54s.09,0,.24.2a3,3,0,0,1,.46.79,4.51,4.51,0,0,1-.19,3.31,17,17,0,0,1-2.92,3.93,12.65,12.65,0,0,0-2.59,5.18,12.45,12.45,0,0,0,0,5.79,12.91,12.91,0,0,0,1.93,4.34,18.78,18.78,0,0,0,3,3.24,4.41,4.41,0,0,1-1-.65,11.86,11.86,0,0,1-2.31-2.37,12.88,12.88,0,0,1-2.1-4.45,12.61,12.61,0,0,1,0-6,13,13,0,0,1,2.73-5.37,18.17,18.17,0,0,0,3-3.77,4.52,4.52,0,0,0,.33-3.09A7.65,7.65,0,0,0,232.54,117.54Z" style="fill:#455a64"></path><path d="M155.54,303s5.18,5.89,8,9.5c3.44,4.36,6.61,7.24,8.59,7.71l10.5,2.5s0,4.42-4.9,3.88-5.94-1.42-5.94-1.42,7.63,20.37,6.49,21.35c-2,1.74-4.22-3-4.22-3l-7.11-13,.48,6.55a2.94,2.94,0,0,1-2.65,3.14h0a2.91,2.91,0,0,1-3-1.87L159.55,334l.29,2a2.86,2.86,0,0,1-2.16,3.21h0a2.82,2.82,0,0,1-3-1.2l-2.72-4.11.45,1.73a2.05,2.05,0,0,1-1.51,2.52h0a2,2,0,0,1-2.31-1.13l-10.85-23.34Z" style="fill:#ffbe9d"></path><path d="M165.47,308.49c-16-30.34-36.39-74.28-39.11-80.15a54.1,54.1,0,0,1,9.45,1.06l.53-.05-2.44-23.66A161.68,161.68,0,0,0,105,212.17c-13.25,4.41-21.19,17.71-21.26,30.71a13.59,13.59,0,0,0,0,1.68c0,1.05.14,2.1.29,3.13l.16-.2c5.47,23.91,53.93,74.24,53.93,74.24Z" style="fill:#000000"></path><path d="M114.16,221.1a6.82,6.82,0,0,1,2.42.15A16.06,16.06,0,0,1,122,223.4a15.8,15.8,0,0,1,4.29,4,7.35,7.35,0,0,1,1.19,2.1,22.13,22.13,0,0,1-1.48-1.88,18.3,18.3,0,0,0-4.28-3.75,18.53,18.53,0,0,0-5.23-2.23C115.07,221.26,114.16,221.18,114.16,221.1Z" style="fill:#263238"></path><path d="M106,230.35s.22-.23.68-.55a13.58,13.58,0,0,1,2.07-1.19,19.08,19.08,0,0,1,3.33-1.23,19.89,19.89,0,0,1,8.64-.31,19.24,19.24,0,0,1,3.41,1,14.35,14.35,0,0,1,2.14,1c.48.29.74.47.72.5s-1.12-.54-3-1.19a20.82,20.82,0,0,0-3.37-.86,23.64,23.64,0,0,0-4.23-.27,23,23,0,0,0-4.2.58,21.25,21.25,0,0,0-3.3,1.09C107,229.73,106,230.43,106,230.35Z" style="fill:#263238"></path><path d="M164.2,306.69a5.7,5.7,0,0,1-1.06.65c-.7.39-1.72.93-3,1.58-2.55,1.3-6.12,3-10.14,4.7s-7.72,3.11-10.42,4.05c-1.35.47-2.45.83-3.22,1.06a4.74,4.74,0,0,1-1.21.31,6.34,6.34,0,0,1,1.14-.5l3.16-1.22c2.67-1,6.34-2.47,10.35-4.17s7.59-3.35,10.18-4.56l3.07-1.43A5.85,5.85,0,0,1,164.2,306.69Z" style="fill:#fff"></path><path d="M161.78,304a5.16,5.16,0,0,1-1,.64c-.68.39-1.68.93-2.93,1.58-2.49,1.3-6,3-9.87,4.83s-7.47,3.33-10.08,4.38c-1.3.53-2.36.94-3.1,1.21a6.51,6.51,0,0,1-1.17.38,4.9,4.9,0,0,1,1.09-.56l3-1.37c2.56-1.14,6.11-2.71,10-4.51s7.39-3.47,9.92-4.69c1.2-.56,2.2-1,3-1.43A4.85,4.85,0,0,1,161.78,304Z" style="fill:#fff"></path><g style="opacity:0.2"><path d="M127.23,229.18a15.68,15.68,0,0,0-14.61-7.63c-.52,0-1.12.17-1.33.65-.39.87.87,1.51,1.82,1.64a25.78,25.78,0,0,0-12.92,3.64c-1.28.77-2.65,2.25-1.92,3.54s2.56.93,3.9.45a63.74,63.74,0,0,1,12.35-3.54,20.93,20.93,0,0,1,12.55,1.67"></path></g></g></svg>